<svg id="visual" viewBox="0 0 900 600" width="900" height="600" xmlns="http://www.w3.org/2000/svg" xmlns:xlink="http://www.w3.org/1999/xlink" version="1.1"><rect x="0" y="0" width="900" height="600" fill="#fff"></rect><defs><linearGradient id="grad1_0" x1="33.3%" y1="100%" x2="100%" y2="0%"><stop offset="20%" stop-color="#ffffff" stop-opacity="1"></stop><stop offset="80%" stop-color="#ffffff" stop-opacity="1"></stop></linearGradient></defs><defs><linearGradient id="grad2_0" x1="0%" y1="100%" x2="66.7%" y2="0%"><stop offset="20%" stop-color="#ffffff" stop-opacity="1"></stop><stop offset="80%" stop-color="#ffffff" stop-opacity="1"></stop></linearGradient></defs><g transform="translate(900, 600)"><path d="M-540.8 0C-496.4 -54.4 -452.1 -108.9 -433.3 -179.5C-414.5 -250.1 -421.4 -336.9 -382.4 -382.4C-343.4 -428 -258.5 -432.3 -187.1 -451.8C-115.7 -471.3 -57.9 -506.1 0 -540.8L0 0Z" fill="#b2c7fc"></path></g><g transform="translate(0, 0)"><path d="M540.8 0C534.1 70.5 527.4 140.9 499.7 207C471.9 273 423.2 334.7 363.5 363.5C303.7 392.2 233.1 388 170.7 412.1C108.3 436.1 54.1 488.5 0 540.8L0 0Z" fill="#b2c7fc"></path></g></svg>