<svg id="visual" viewBox="0 0 900 600" width="900" height="600" xmlns="http://www.w3.org/2000/svg" xmlns:xlink="http://www.w3.org/1999/xlink" version="1.1"><rect x="0" y="0" width="900" height="600" fill="#fff"></rect><path d="M741 0L657 10C573 20 405 40 333.5 60C262 80 287 100 377.5 120C468 140 624 160 648 180C672 200 564 220 538.3 240C512.7 260 569.3 280 580.3 300C591.3 320 556.7 340 514.2 360C471.7 380 421.3 400 370.5 420C319.7 440 268.3 460 295.7 480C323 500 429 520 477.8 540C526.7 560 518.3 580 514.2 590L510 600L0 600L0 590C0 580 0 560 0 540C0 520 0 500 0 480C0 460 0 440 0 420C0 400 0 380 0 360C0 340 0 320 0 300C0 280 0 260 0 240C0 220 0 200 0 180C0 160 0 140 0 120C0 100 0 80 0 60C0 40 0 20 0 10L0 0Z" fill="#b2c7fc" stroke-linecap="round" stroke-linejoin="miter"></path></svg>